<svg xmlns="http://www.w3.org/2000/svg" version="1.1" xmlns:xlink="http://www.w3.org/1999/xlink" xmlns:svgjs="http://svgjs.dev/svgjs" width="2000" height="442" viewBox="0 0 2000 442"><g transform="matrix(1,0,0,1,0.21333333333336668,0.42997051940267283)"><svg viewBox="0 0 375 83" data-background-color="#ffffff" preserveAspectRatio="xMidYMid meet" height="442" width="2000" xmlns="http://www.w3.org/2000/svg" xmlns:xlink="http://www.w3.org/1999/xlink"><g id="tight-bounds" transform="matrix(1,0,0,1,-0.03976000000000113,-0.08025107038554324)"><svg viewBox="0 0 375.07953 83.16085425588496" height="83.16085425588496" width="375.07953"><g><svg></svg></g><g><svg viewBox="0 0 375.07953 83.16085425588496" height="83.16085425588496" width="375.07953"><g transform="matrix(1,0,0,1,-10.22024,-84.27249000000002)"><path d="M10.22 162.928v-78.656h375.08v78.656h-32.895l0-2.636h30.259v-73.384h-369.808v73.384h170.222l0 2.636z" fill="#ffffff" fill-rule="nonzero" stroke="none" stroke-width="1" stroke-linecap="butt" stroke-linejoin="miter" stroke-miterlimit="10" stroke-dasharray="" stroke-dashoffset="0" font-family="none" font-weight="none" font-size="none" text-anchor="none" style="mix-blend-mode: normal" data-fill-palette-color="tertiary"></path><g><path d="M198.629 162.036l0.067 0.037c0 0.096-0.062 0.43-0.184 1.002-0.121 0.571-0.208 0.869-0.26 0.894v0c-0.637 0.384-1.679 0.576-3.124 0.575v0c-1.151 0-2.129-0.422-2.934-1.266-0.807-0.846-1.21-1.853-1.21-3.02v0c0-1.239 0.414-2.3 1.242-3.183 0.828-0.885 1.843-1.328 3.044-1.328v0c1.03 0 2.089 0.109 3.177 0.327v0c-0.018 1.169-0.027 1.796-0.026 1.882v0c0 0.132-0.091 0.198-0.273 0.198v0c-0.087 0-0.145-0.022-0.172-0.067v0c-0.025-0.112-0.057-0.228-0.096-0.345-0.039-0.118-0.122-0.27-0.249-0.458-0.127-0.187-0.279-0.349-0.458-0.485-0.178-0.134-0.431-0.252-0.758-0.353-0.327-0.1-0.695-0.15-1.105-0.15v0c-0.853 0-1.58 0.377-2.182 1.133-0.601 0.753-0.902 1.604-0.902 2.553v0c0 0.707 0.121 1.356 0.364 1.949 0.245 0.593 0.631 1.082 1.159 1.47 0.526 0.387 1.151 0.581 1.874 0.581v0c0.864 0 1.53-0.253 2-0.758v0c0.123-0.13 0.23-0.303 0.321-0.516 0.091-0.212 0.161-0.391 0.209-0.536 0.048-0.145 0.086-0.217 0.112-0.216v0c0.052 0 0.114 0.009 0.188 0.026 0.075 0.018 0.134 0.036 0.176 0.054zM202.161 159.265v0c-0.462 0-0.84 0.211-1.133 0.632-0.291 0.423-0.436 0.94-0.436 1.55v0c0 0.714 0.185 1.326 0.554 1.836 0.371 0.51 0.805 0.766 1.301 0.766v0c0.462 0 0.842-0.218 1.138-0.653 0.296-0.437 0.444-0.96 0.444-1.569v0c0-0.707-0.187-1.311-0.562-1.812-0.375-0.5-0.81-0.75-1.306-0.75zM202.302 158.754v0c0.785 0 1.456 0.284 2.014 0.851 0.559 0.566 0.838 1.245 0.838 2.037v0c0 0.803-0.272 1.489-0.817 2.059-0.546 0.571-1.215 0.857-2.008 0.857-0.792 0-1.468-0.286-2.026-0.857-0.557-0.569-0.835-1.256-0.836-2.059v0c0-0.81 0.27-1.494 0.812-2.05 0.539-0.559 1.214-0.838 2.023-0.838zM209.86 158.74v0c0.609 0 1.035 0.218 1.28 0.654 0.245 0.437 0.367 1.143 0.366 2.117v0 1.191c0 0.505 0.035 0.892 0.105 1.162v0c0.018 0.062 0.131 0.121 0.34 0.177 0.209 0.057 0.357 0.086 0.444 0.086v0c0.027 0 0.044 0.053 0.051 0.158 0.009 0.104 0.005 0.178-0.011 0.222v0c-0.873-0.045-1.339-0.067-1.4-0.067v0c-0.018 0-0.476 0.022-1.373 0.067v0c-0.034-0.036-0.051-0.108-0.051-0.217 0-0.109 0.017-0.163 0.051-0.163v0c0.105 0 0.252-0.029 0.439-0.086 0.187-0.055 0.29-0.114 0.308-0.177v0c0.061-0.252 0.091-0.556 0.091-0.913v0-1.309c0-0.81-0.104-1.364-0.314-1.66-0.209-0.296-0.549-0.444-1.02-0.444v0c-0.278 0-0.546 0.103-0.803 0.308-0.257 0.205-0.386 0.39-0.385 0.554v0 2.302c0 0.505 0.035 0.892 0.104 1.162v0c0.016 0.062 0.129 0.121 0.34 0.177 0.209 0.057 0.357 0.086 0.445 0.086v0c0.025 0 0.042 0.053 0.051 0.158 0.009 0.104 0.004 0.178-0.014 0.222v0c-0.871-0.045-1.337-0.067-1.397-0.067v0c-0.054 0-0.529 0.022-1.427 0.067v0c-0.034-0.036-0.051-0.108-0.051-0.217 0-0.109 0.017-0.163 0.051-0.163v0c0.105 0 0.261-0.029 0.466-0.086 0.205-0.055 0.316-0.114 0.332-0.177v0c0.062-0.252 0.094-0.556 0.093-0.913v0-2.471c0-0.341-0.062-0.576-0.184-0.706v0c-0.087-0.105-0.194-0.177-0.319-0.214-0.127-0.039-0.232-0.059-0.316-0.059-0.082 0-0.123-0.009-0.123-0.027v0c0-0.209 0.026-0.318 0.078-0.327v0c0.924-0.139 1.526-0.253 1.804-0.34v0c0.009 0 0.022-0.003 0.04-0.008 0.018-0.004 0.027-0.005 0.027-0.005v0c0.034 0 0.055 0.037 0.064 0.11 0.009 0.075 0.009 0.129 0 0.163v0c-0.036 0.245-0.054 0.419-0.053 0.525v0c0 0.034 0.009 0.051 0.026 0.051v0c0.009 0 0.022-0.009 0.04-0.027v0c0.2-0.209 0.472-0.407 0.817-0.595 0.344-0.187 0.674-0.281 0.988-0.281zM216.957 158.74v0c0.61 0 1.038 0.218 1.282 0.654 0.243 0.437 0.364 1.143 0.364 2.117v0 1.191c0 0.505 0.035 0.892 0.105 1.162v0c0.018 0.062 0.131 0.121 0.34 0.177 0.209 0.057 0.357 0.086 0.444 0.086v0c0.027 0 0.045 0.053 0.054 0.158 0.009 0.104 0.004 0.178-0.014 0.222v0c-0.871-0.045-1.338-0.067-1.4-0.067v0c-0.016 0-0.473 0.022-1.371 0.067v0c-0.036-0.036-0.054-0.108-0.053-0.217 0-0.109 0.018-0.163 0.053-0.163v0c0.104 0 0.249-0.029 0.437-0.086 0.187-0.055 0.29-0.114 0.308-0.177v0c0.061-0.252 0.091-0.556 0.091-0.913v0-1.309c0-0.81-0.104-1.364-0.314-1.66-0.209-0.296-0.549-0.444-1.02-0.444v0c-0.278 0-0.546 0.103-0.803 0.308-0.257 0.205-0.386 0.39-0.385 0.554v0 2.302c0 0.505 0.035 0.892 0.104 1.162v0c0.018 0.062 0.131 0.121 0.34 0.177 0.209 0.057 0.357 0.086 0.445 0.086v0c0.027 0 0.044 0.053 0.051 0.158 0.009 0.104 0.005 0.178-0.011 0.222v0c-0.873-0.045-1.339-0.067-1.4-0.067v0c-0.052 0-0.526 0.022-1.425 0.067v0c-0.036-0.036-0.054-0.108-0.053-0.217 0-0.109 0.018-0.163 0.053-0.163v0c0.104 0 0.258-0.029 0.464-0.086 0.205-0.055 0.317-0.114 0.334-0.177v0c0.061-0.252 0.091-0.556 0.091-0.913v0-2.471c0-0.341-0.061-0.576-0.182-0.706v0c-0.087-0.105-0.195-0.177-0.321-0.214-0.127-0.039-0.231-0.059-0.313-0.059-0.084 0-0.126-0.009-0.126-0.027v0c0-0.209 0.027-0.318 0.08-0.327v0c0.923-0.139 1.523-0.253 1.802-0.34v0c0.009 0 0.022-0.003 0.04-0.008 0.018-0.004 0.027-0.005 0.027-0.005v0c0.034 0 0.055 0.037 0.064 0.11 0.009 0.075 0.009 0.129 0 0.163v0c-0.034 0.245-0.051 0.419-0.051 0.525v0c0 0.034 0.009 0.051 0.027 0.051v0c0.007 0 0.02-0.009 0.038-0.027v0c0.2-0.209 0.472-0.407 0.816-0.595 0.344-0.187 0.674-0.281 0.988-0.281zM222.788 159.252v0c-0.453 0-0.8 0.194-1.039 0.581-0.241 0.387-0.361 0.708-0.362 0.961v0c0 0.061 0.027 0.091 0.081 0.091v0h2.548c0.043 0 0.064-0.044 0.065-0.131v0c0-0.278-0.118-0.599-0.354-0.962-0.236-0.361-0.549-0.541-0.939-0.54zM222.919 158.767v0c0.4 0 0.752 0.077 1.057 0.23 0.305 0.152 0.538 0.347 0.699 0.587 0.162 0.241 0.28 0.485 0.353 0.733 0.075 0.248 0.112 0.494 0.113 0.739v0c0 0.173-0.027 0.279-0.081 0.319-0.052 0.039-0.152 0.059-0.299 0.058v0h-3.293c-0.07 0-0.104 0.022-0.105 0.067v0c0 0.548 0.165 1.053 0.496 1.516 0.332 0.462 0.811 0.693 1.437 0.693v0c0.184 0 0.358-0.018 0.522-0.054 0.166-0.034 0.308-0.075 0.426-0.123 0.118-0.048 0.218-0.096 0.3-0.144 0.084-0.048 0.156-0.094 0.217-0.137v0l0.091-0.067c0.054 0 0.08 0.057 0.08 0.172v0c0 0.07-0.027 0.148-0.08 0.235v0c-0.173 0.245-0.43 0.464-0.771 0.659-0.339 0.196-0.709 0.294-1.111 0.294v0c-0.723 0-1.344-0.272-1.864-0.816-0.518-0.544-0.776-1.209-0.776-1.995v0c0-0.914 0.246-1.637 0.739-2.168 0.493-0.532 1.109-0.798 1.85-0.798zM228.487 158.767v0c0.958 0 1.621 0.222 1.987 0.667v0c0 0.584-0.162 0.875-0.485 0.875v0c-0.148 0-0.261-0.032-0.34-0.096-0.079-0.066-0.178-0.186-0.3-0.362v0c-0.269-0.4-0.592-0.6-0.966-0.599v0c-0.359 0-0.684 0.17-0.975 0.508-0.293 0.341-0.439 0.847-0.439 1.518v0c0 0.696 0.172 1.275 0.517 1.738 0.344 0.462 0.822 0.693 1.432 0.693v0c0.182 0 0.356-0.018 0.522-0.054 0.166-0.034 0.308-0.075 0.426-0.123 0.118-0.048 0.218-0.096 0.3-0.144 0.082-0.048 0.154-0.094 0.217-0.137v0l0.091-0.067c0.052 0 0.078 0.057 0.077 0.172v0c0 0.07-0.026 0.148-0.077 0.235v0c-0.175 0.245-0.432 0.464-0.771 0.659-0.341 0.196-0.711 0.294-1.111 0.294v0c-0.725 0-1.346-0.272-1.864-0.816-0.519-0.544-0.779-1.209-0.779-1.995v0c0-0.801 0.219-1.496 0.656-2.082 0.435-0.589 1.063-0.883 1.882-0.884zM231.807 162.898v-3.32h-0.758c-0.045 0-0.067-0.092-0.067-0.275v0c0-0.052 0.004-0.082 0.014-0.091v0c0.253-0.112 0.528-0.344 0.824-0.694v0c0.095-0.112 0.188-0.241 0.281-0.385 0.091-0.143 0.167-0.267 0.228-0.372 0.061-0.104 0.091-0.16 0.091-0.169v0c0.262 0 0.394 0.021 0.393 0.064v0 1.293c0.227 0 0.571 0.003 1.034 0.008 0.46 0.004 0.704 0.005 0.731 0.006v0c0.07 0 0.104 0.039 0.104 0.117v0c0 0.157-0.044 0.323-0.131 0.498v0h-1.738v3.202c0 0.348 0.089 0.627 0.268 0.838 0.178 0.209 0.411 0.313 0.699 0.313v0c0.262 0 0.533-0.083 0.811-0.249v0c0.027-0.018 0.066 0.02 0.118 0.113 0.052 0.091 0.073 0.141 0.064 0.15v0c-0.13 0.139-0.33 0.276-0.6 0.409-0.271 0.136-0.551 0.203-0.838 0.204v0c-0.435 0-0.8-0.144-1.092-0.431-0.291-0.287-0.436-0.697-0.436-1.229zM236.165 157.18c-0.127-0.127-0.19-0.282-0.19-0.466 0-0.182 0.063-0.336 0.19-0.463 0.127-0.127 0.282-0.19 0.466-0.19 0.182 0 0.336 0.063 0.463 0.19 0.127 0.127 0.19 0.281 0.19 0.463 0 0.184-0.063 0.339-0.19 0.466-0.127 0.127-0.281 0.19-0.463 0.19-0.184 0-0.339-0.063-0.466-0.19zM237.231 160.009v2.693c0 0.505 0.035 0.892 0.104 1.162v0c0.018 0.062 0.131 0.121 0.34 0.177 0.209 0.057 0.357 0.086 0.444 0.086v0c0.027 0 0.045 0.053 0.054 0.158 0.009 0.104 0.004 0.178-0.014 0.222v0c-0.871-0.045-1.338-0.067-1.4-0.067-0.061 0-0.535 0.022-1.424 0.067v0c-0.034-0.036-0.051-0.108-0.051-0.217 0-0.109 0.017-0.163 0.051-0.163v0c0.105 0 0.261-0.029 0.466-0.086 0.203-0.055 0.314-0.114 0.332-0.177v0c0.061-0.252 0.091-0.556 0.091-0.913v0-2.471c0-0.341-0.061-0.576-0.182-0.706v0c-0.087-0.105-0.195-0.177-0.321-0.214-0.127-0.039-0.231-0.059-0.314-0.059-0.082 0-0.123-0.009-0.123-0.027v0c0-0.209 0.026-0.318 0.078-0.327v0c0.924-0.139 1.526-0.253 1.804-0.34v0l0.027-0.013c0.016 0 0.029 0 0.038 0v0c0.036 0 0.058 0.037 0.066 0.11 0.009 0.075 0.009 0.129 0 0.163v0c-0.045 0.35-0.067 0.664-0.066 0.942zM242.59 158.74v0c0.61 0 1.038 0.218 1.282 0.654 0.243 0.437 0.364 1.143 0.364 2.117v0 1.191c0 0.505 0.035 0.892 0.105 1.162v0c0.018 0.062 0.131 0.121 0.34 0.177 0.211 0.057 0.359 0.086 0.444 0.086v0c0.027 0 0.045 0.053 0.054 0.158 0.009 0.104 0.004 0.178-0.014 0.222v0c-0.871-0.045-1.337-0.067-1.397-0.067v0c-0.018 0-0.476 0.022-1.373 0.067v0c-0.036-0.036-0.054-0.108-0.054-0.217 0-0.109 0.018-0.163 0.054-0.163v0c0.105 0 0.252-0.029 0.439-0.086 0.187-0.055 0.289-0.114 0.305-0.177v0c0.061-0.252 0.091-0.556 0.091-0.913v0-1.309c0-0.81-0.104-1.364-0.313-1.66-0.209-0.296-0.549-0.444-1.02-0.444v0c-0.278 0-0.546 0.103-0.803 0.308-0.257 0.205-0.386 0.39-0.386 0.554v0 2.302c0 0.505 0.035 0.892 0.104 1.162v0c0.018 0.062 0.131 0.121 0.34 0.177 0.209 0.057 0.357 0.086 0.445 0.086v0c0.027 0 0.045 0.053 0.053 0.158 0.009 0.104 0.004 0.178-0.013 0.222v0c-0.873-0.045-1.339-0.067-1.4-0.067v0c-0.052 0-0.526 0.022-1.424 0.067v0c-0.034-0.036-0.051-0.108-0.051-0.217 0-0.109 0.017-0.163 0.051-0.163v0c0.105 0 0.26-0.029 0.463-0.086 0.205-0.055 0.317-0.114 0.334-0.177v0c0.061-0.252 0.091-0.556 0.091-0.913v0-2.471c0-0.341-0.061-0.576-0.182-0.706v0c-0.087-0.105-0.195-0.177-0.321-0.214-0.127-0.039-0.231-0.059-0.313-0.059-0.082 0-0.123-0.009-0.123-0.027v0c0-0.209 0.026-0.318 0.077-0.327v0c0.923-0.139 1.524-0.253 1.805-0.34v0c0.009 0 0.021-0.003 0.037-0.008 0.018-0.004 0.027-0.005 0.027-0.005v0c0.036 0 0.057 0.037 0.064 0.11 0.009 0.075 0.009 0.129 0 0.163v0c-0.034 0.245-0.051 0.419-0.051 0.525v0c0 0.034 0.009 0.051 0.027 0.051v0c0.009 0 0.021-0.009 0.038-0.027v0c0.202-0.209 0.475-0.407 0.819-0.595 0.343-0.187 0.671-0.281 0.985-0.281zM250.434 165.578v0c0-0.366-0.178-0.612-0.535-0.739-0.359-0.127-1.069-0.19-2.131-0.19v0c-0.018 0-0.045 0.009-0.081 0.026v0c-0.007 0.009-0.046 0.029-0.115 0.059-0.071 0.03-0.115 0.05-0.131 0.059-0.018 0.009-0.057 0.033-0.118 0.073-0.061 0.039-0.103 0.065-0.126 0.077-0.021 0.014-0.058 0.041-0.109 0.08-0.052 0.037-0.087 0.072-0.105 0.105-0.018 0.03-0.044 0.067-0.077 0.11-0.036 0.045-0.06 0.088-0.073 0.131-0.014 0.043-0.028 0.093-0.04 0.15-0.012 0.057-0.019 0.116-0.019 0.176v0c0 0.375 0.194 0.677 0.581 0.908 0.387 0.232 0.817 0.348 1.288 0.348v0c0.523 0 0.952-0.14 1.288-0.42 0.336-0.278 0.503-0.596 0.503-0.953zM247.088 160.598v0c0 0.4 0.124 0.74 0.372 1.02 0.248 0.278 0.538 0.418 0.87 0.418v0c0.339 0 0.62-0.131 0.843-0.394 0.221-0.261 0.332-0.574 0.332-0.939v0c0-0.402-0.124-0.742-0.372-1.02-0.248-0.278-0.538-0.418-0.87-0.418v0c-0.339 0-0.62 0.13-0.843 0.391-0.221 0.262-0.332 0.576-0.332 0.942zM248.316 158.821v0c0.323 0 0.693 0.056 1.111 0.168 0.418 0.114 0.762 0.171 1.034 0.172v0h0.757c0.052 0.016 0.078 0.125 0.078 0.326v0c0 0.121-0.026 0.182-0.078 0.182v0h-0.929c-0.034 0-0.051 0.013-0.05 0.04v0l0.128 0.314c0.096 0.209 0.145 0.418 0.145 0.626v0c0 0.471-0.209 0.894-0.627 1.269-0.419 0.375-0.933 0.562-1.542 0.562v0c-0.28 0-0.525-0.018-0.733-0.053v0c-0.112 0.061-0.232 0.17-0.359 0.326-0.127 0.157-0.19 0.297-0.19 0.421 0 0.121 0.035 0.219 0.104 0.291 0.07 0.075 0.17 0.128 0.3 0.158 0.132 0.03 0.259 0.052 0.38 0.065 0.121 0.014 0.265 0.021 0.431 0.021v0c0.045 0 0.075 0 0.091 0v0c1.082 0.018 1.84 0.129 2.276 0.332 0.435 0.205 0.653 0.513 0.653 0.924v0c0 0.671-0.283 1.248-0.849 1.732-0.568 0.484-1.296 0.729-2.184 0.736v0c-0.618 0.009-1.173-0.108-1.665-0.351-0.493-0.245-0.739-0.611-0.739-1.1v0c0-0.539 0.427-1 1.279-1.384v0c-0.234-0.036-0.452-0.145-0.653-0.327-0.2-0.184-0.3-0.406-0.3-0.666v0c0-0.227 0.098-0.462 0.295-0.707 0.196-0.245 0.416-0.445 0.658-0.602v0c-0.261-0.095-0.502-0.301-0.725-0.619-0.221-0.319-0.332-0.662-0.332-1.028v0c0-0.514 0.216-0.948 0.648-1.301 0.43-0.352 0.959-0.527 1.587-0.527zM255.716 162.898v-3.32h-0.76c-0.043 0-0.064-0.092-0.065-0.275v0c0-0.052 0.004-0.082 0.014-0.091v0c0.252-0.112 0.526-0.344 0.822-0.694v0c0.096-0.112 0.19-0.241 0.281-0.385 0.093-0.143 0.17-0.267 0.23-0.372 0.061-0.104 0.091-0.16 0.091-0.169v0c0.262 0 0.394 0.021 0.393 0.064v0 1.293c0.225 0 0.568 0.003 1.031 0.008 0.462 0.004 0.707 0.005 0.734 0.006v0c0.07 0 0.104 0.039 0.104 0.117v0c0 0.157-0.044 0.323-0.131 0.498v0h-1.738v3.202c0 0.348 0.089 0.627 0.268 0.838 0.178 0.209 0.411 0.313 0.699 0.313v0c0.261 0 0.531-0.083 0.811-0.249v0c0.025-0.018 0.064 0.02 0.118 0.113 0.052 0.091 0.073 0.141 0.064 0.15v0c-0.13 0.139-0.331 0.276-0.602 0.409-0.269 0.136-0.548 0.203-0.835 0.204v0c-0.435 0-0.8-0.144-1.093-0.431-0.291-0.287-0.436-0.697-0.436-1.229zM262.853 158.74v0c0.584 0 1.001 0.21 1.253 0.629 0.253 0.418 0.38 1.062 0.38 1.933v0 1.414c0 0.496 0.035 0.879 0.104 1.148v0c0.018 0.062 0.131 0.121 0.34 0.177 0.209 0.057 0.357 0.086 0.445 0.086v0c0.027 0 0.044 0.053 0.051 0.158 0.009 0.104 0.005 0.178-0.011 0.222v0c-0.873-0.045-1.339-0.067-1.4-0.067v0c-0.027 0-0.485 0.022-1.373 0.067v0c-0.034-0.036-0.051-0.108-0.051-0.217 0-0.109 0.017-0.163 0.051-0.163v0c0.105 0 0.252-0.029 0.439-0.086 0.187-0.055 0.29-0.114 0.307-0.177v0c0.061-0.252 0.091-0.556 0.091-0.913v0-1.386c0-0.801-0.112-1.339-0.334-1.615-0.221-0.275-0.563-0.412-1.025-0.412v0c-0.261 0-0.519 0.103-0.777 0.308-0.257 0.205-0.386 0.386-0.385 0.543v0 2.313c0 0.505 0.035 0.892 0.104 1.162v0c0.016 0.062 0.129 0.121 0.34 0.177 0.209 0.057 0.357 0.086 0.444 0.086v0c0.025 0 0.042 0.053 0.051 0.158 0.009 0.104 0.004 0.178-0.013 0.222v0c-0.871-0.045-1.337-0.067-1.398-0.067v0c-0.054 0-0.528 0.022-1.424 0.067v0c-0.036-0.036-0.054-0.108-0.053-0.217 0-0.109 0.018-0.163 0.053-0.163v0c0.104 0 0.258-0.029 0.463-0.086 0.205-0.055 0.316-0.114 0.332-0.177v0c0.062-0.252 0.094-0.552 0.094-0.902v0-5.673c0-0.296-0.027-0.575-0.08-0.835v0c-0.043-0.139-0.265-0.209-0.667-0.209v0h-0.118c-0.052 0-0.078-0.048-0.077-0.144v0c0-0.139 0.026-0.209 0.077-0.209v0c0.262-0.027 0.504-0.062 0.726-0.105 0.223-0.045 0.398-0.088 0.525-0.131 0.125-0.043 0.231-0.084 0.318-0.123 0.087-0.039 0.149-0.072 0.185-0.099v0l0.064-0.04h0.027c0.034 0 0.069 0.024 0.104 0.072 0.034 0.048 0.055 0.094 0.065 0.137v0c-0.095 0.28-0.142 0.659-0.142 1.138v0 2.864c0 0.034 0.008 0.051 0.024 0.051v0c0.009 0 0.022-0.009 0.04-0.027v0c0.191-0.209 0.463-0.409 0.816-0.6 0.353-0.193 0.692-0.289 1.015-0.289zM268.644 159.252v0c-0.453 0-0.8 0.194-1.042 0.581-0.239 0.387-0.359 0.708-0.359 0.961v0c0 0.061 0.026 0.091 0.078 0.091v0h2.551c0.043 0 0.064-0.044 0.065-0.131v0c0-0.278-0.118-0.599-0.354-0.962-0.236-0.361-0.549-0.541-0.939-0.54zM268.772 158.767v0c0.402 0 0.755 0.077 1.06 0.23 0.305 0.152 0.538 0.347 0.699 0.587 0.162 0.241 0.28 0.485 0.353 0.733 0.075 0.248 0.112 0.494 0.113 0.739v0c0 0.173-0.027 0.279-0.081 0.319-0.052 0.039-0.152 0.059-0.299 0.058v0h-3.296c-0.07 0-0.104 0.022-0.104 0.067v0c0 0.548 0.166 1.053 0.498 1.516 0.332 0.462 0.811 0.693 1.437 0.693v0c0.184 0 0.358-0.018 0.522-0.054 0.166-0.034 0.308-0.075 0.426-0.123 0.118-0.048 0.218-0.096 0.3-0.144 0.084-0.048 0.156-0.094 0.217-0.137v0l0.091-0.067c0.052 0 0.078 0.057 0.077 0.172v0c0 0.07-0.026 0.148-0.077 0.235v0c-0.175 0.245-0.432 0.464-0.771 0.659-0.339 0.196-0.709 0.294-1.111 0.294v0c-0.723 0-1.344-0.272-1.864-0.816-0.518-0.544-0.776-1.209-0.776-1.995v0c0-0.914 0.246-1.637 0.739-2.168 0.491-0.532 1.107-0.798 1.847-0.798zM277.558 159.265v0c-0.505 0-0.902 0.227-1.191 0.68-0.287 0.452-0.431 0.978-0.431 1.58v0c0 0.637 0.17 1.189 0.511 1.654 0.339 0.466 0.809 0.699 1.411 0.699v0c0.296 0 0.527-0.067 0.694-0.201 0.166-0.136 0.249-0.317 0.249-0.544v0-3.11c0-0.184-0.098-0.356-0.295-0.517-0.196-0.161-0.512-0.241-0.948-0.241zM277.727 158.716v0c0.375 0 0.701 0.074 0.98 0.222v0c0.062 0 0.094-0.079 0.094-0.235v0-1.414c0-0.296-0.027-0.575-0.081-0.835v0c-0.043-0.139-0.265-0.209-0.666-0.209v0h-0.118c-0.052 0-0.078-0.048-0.078-0.144v0c0-0.139 0.026-0.209 0.078-0.209v0c0.262-0.027 0.504-0.062 0.725-0.105 0.223-0.045 0.398-0.088 0.525-0.131 0.125-0.043 0.231-0.084 0.319-0.123 0.087-0.039 0.153-0.072 0.195-0.099v0l0.054-0.04h0.026c0.034 0 0.069 0.024 0.105 0.072 0.034 0.048 0.055 0.094 0.064 0.137v0c-0.095 0.28-0.142 0.659-0.142 1.138v0 5.884c0 0.418 0.026 0.749 0.078 0.993v0c0.018 0.061 0.066 0.108 0.144 0.142 0.079 0.036 0.159 0.058 0.241 0.067 0.082 0.009 0.162 0.013 0.241 0.013v0l0.118 0.014c0.027 0.007 0.04 0.059 0.04 0.155v0c0 0.13-0.026 0.195-0.077 0.195v0c-0.132 0.009-0.278 0.027-0.44 0.054-0.161 0.027-0.313 0.055-0.457 0.086-0.145 0.03-0.278 0.061-0.399 0.091-0.121 0.03-0.221 0.059-0.3 0.085v0l-0.118 0.024c-0.052 0-0.078-0.074-0.077-0.222v0-0.155c0-0.054-0.018-0.071-0.054-0.054v0c-0.487 0.271-0.949 0.407-1.387 0.407v0c-0.723 0-1.328-0.258-1.815-0.773-0.489-0.514-0.734-1.128-0.733-1.842v0c0-0.846 0.299-1.589 0.896-2.23 0.596-0.639 1.269-0.958 2.019-0.959zM283.989 159.265v0c-0.462 0-0.839 0.211-1.13 0.632-0.293 0.423-0.439 0.94-0.439 1.55v0c0 0.714 0.186 1.326 0.557 1.836 0.369 0.51 0.802 0.766 1.298 0.766v0c0.462 0 0.842-0.218 1.138-0.653 0.296-0.437 0.444-0.96 0.444-1.569v0c0-0.707-0.187-1.311-0.562-1.812-0.375-0.5-0.81-0.75-1.306-0.75zM284.133 158.754v0c0.783 0 1.455 0.284 2.014 0.851 0.557 0.566 0.835 1.245 0.835 2.037v0c0 0.803-0.272 1.489-0.817 2.059-0.544 0.571-1.213 0.857-2.005 0.857-0.794 0-1.47-0.286-2.026-0.857-0.559-0.569-0.838-1.256-0.838-2.059v0c0-0.81 0.27-1.494 0.811-2.05 0.541-0.559 1.216-0.838 2.026-0.838zM288.524 162.898v-3.32h-0.758c-0.043 0-0.064-0.092-0.064-0.275v0c0-0.052 0.004-0.082 0.013-0.091v0c0.252-0.112 0.526-0.344 0.822-0.694v0c0.096-0.112 0.19-0.241 0.281-0.385 0.093-0.143 0.17-0.267 0.23-0.372 0.061-0.104 0.091-0.16 0.092-0.169v0c0.261 0 0.391 0.021 0.39 0.064v0 1.293c0.227 0 0.571 0.003 1.034 0.008 0.462 0.004 0.707 0.005 0.733 0.006v0c0.07 0 0.104 0.039 0.105 0.117v0c0 0.157-0.044 0.323-0.132 0.498v0h-1.74v3.202c0 0.348 0.089 0.627 0.268 0.838 0.18 0.209 0.414 0.313 0.701 0.313v0c0.261 0 0.53-0.083 0.809-0.249v0c0.027-0.018 0.066 0.02 0.118 0.113 0.054 0.091 0.076 0.141 0.067 0.15v0c-0.13 0.139-0.331 0.276-0.603 0.409-0.269 0.136-0.548 0.203-0.835 0.204v0c-0.435 0-0.8-0.144-1.092-0.431-0.293-0.287-0.439-0.697-0.439-1.229zM294.081 158.754v0c0.191 0 0.433 0.024 0.726 0.072 0.291 0.048 0.493 0.081 0.608 0.099v0c0.086 0.4 0.137 0.844 0.155 1.333v0c0 0.043-0.056 0.064-0.169 0.064v0c-0.123 0-0.188-0.03-0.195-0.091v0c-0.045-0.245-0.17-0.476-0.375-0.693-0.203-0.218-0.436-0.327-0.699-0.327v0c-0.626 0-0.94 0.257-0.939 0.771v0c0 0.13 0.017 0.246 0.05 0.349 0.036 0.1 0.104 0.195 0.204 0.286 0.1 0.091 0.176 0.156 0.227 0.195 0.054 0.039 0.17 0.109 0.349 0.209 0.178 0.102 0.289 0.165 0.331 0.19v0c0.036 0.018 0.138 0.077 0.308 0.177 0.17 0.1 0.289 0.172 0.359 0.217 0.07 0.043 0.172 0.117 0.308 0.222 0.136 0.104 0.234 0.197 0.294 0.281 0.061 0.082 0.12 0.186 0.177 0.313 0.055 0.127 0.083 0.255 0.083 0.386v0c0 0.514-0.2 0.943-0.6 1.288-0.402 0.344-0.873 0.517-1.413 0.516v0c-0.182 0-0.35-0.011-0.503-0.032-0.152-0.023-0.332-0.061-0.541-0.112-0.209-0.052-0.37-0.087-0.485-0.105v0c-0.052-0.139-0.102-0.357-0.15-0.653-0.048-0.296-0.072-0.532-0.072-0.707v0c0.07-0.052 0.122-0.078 0.158-0.077v0c0.13 0 0.2 0.026 0.209 0.077v0c0.052 0.262 0.215 0.518 0.49 0.766 0.275 0.248 0.573 0.372 0.894 0.372v0c0.28 0 0.51-0.077 0.688-0.23 0.178-0.152 0.268-0.371 0.268-0.659v0c0-0.148-0.029-0.286-0.086-0.412-0.057-0.127-0.148-0.24-0.273-0.34-0.127-0.1-0.245-0.183-0.353-0.249-0.109-0.064-0.264-0.149-0.466-0.254-0.2-0.104-0.348-0.186-0.445-0.249v0c-0.678-0.391-1.017-0.857-1.017-1.398v0c0-0.471 0.189-0.855 0.568-1.151 0.378-0.296 0.821-0.444 1.327-0.444zM297.819 164.649v0c0-0.157-0.065-0.37-0.196-0.64-0.13-0.269-0.195-0.448-0.195-0.536v0c0-0.193 0.095-0.356 0.286-0.489 0.191-0.136 0.409-0.203 0.653-0.204v0c0.114 0 0.219 0.018 0.314 0.054v0c0.114 0.164 0.171 0.443 0.171 0.835v0c0 0.166-0.009 0.279-0.027 0.34v0c-0.121 0.566-0.291 1.025-0.508 1.379-0.218 0.353-0.601 0.757-1.152 1.21v0h-0.013c-0.034 0-0.093-0.035-0.177-0.105-0.082-0.07-0.123-0.131-0.123-0.185v0c0-0.016 0.05-0.07 0.15-0.163 0.1-0.091 0.211-0.197 0.332-0.318 0.123-0.123 0.235-0.294 0.335-0.512 0.1-0.218 0.15-0.44 0.15-0.666zM305.636 159.265v0c-0.505 0-0.901 0.227-1.189 0.68-0.287 0.452-0.431 0.978-0.431 1.58v0c0 0.637 0.17 1.189 0.509 1.654 0.339 0.466 0.809 0.699 1.411 0.699v0c0.296 0 0.527-0.067 0.693-0.201 0.166-0.136 0.249-0.317 0.249-0.544v0-3.11c0-0.184-0.098-0.356-0.295-0.517-0.196-0.161-0.512-0.241-0.947-0.241zM305.804 158.716v0c0.375 0 0.702 0.074 0.983 0.222v0c0.061 0 0.091-0.079 0.091-0.235v0-1.414c0-0.296-0.026-0.575-0.078-0.835v0c-0.045-0.139-0.267-0.209-0.666-0.209v0h-0.118c-0.054 0-0.08-0.048-0.08-0.144v0c0-0.139 0.027-0.209 0.08-0.209v0c0.261-0.027 0.502-0.062 0.725-0.105 0.221-0.045 0.395-0.088 0.522-0.131 0.127-0.043 0.234-0.084 0.322-0.123 0.086-0.039 0.151-0.072 0.195-0.099v0l0.051-0.04h0.027c0.036 0 0.07 0.024 0.104 0.072 0.036 0.048 0.058 0.094 0.067 0.137v0c-0.096 0.28-0.145 0.659-0.144 1.138v0 5.884c0 0.418 0.026 0.749 0.077 0.993v0c0.018 0.061 0.066 0.108 0.145 0.142 0.079 0.036 0.159 0.058 0.241 0.067 0.084 0.009 0.165 0.013 0.243 0.013v0l0.115 0.014c0.027 0.007 0.04 0.059 0.041 0.155v0c0 0.13-0.026 0.195-0.078 0.195v0c-0.13 0.009-0.277 0.027-0.439 0.054-0.161 0.027-0.313 0.055-0.458 0.086-0.143 0.03-0.276 0.061-0.399 0.091-0.121 0.03-0.221 0.059-0.3 0.085v0l-0.117 0.024c-0.052 0-0.078-0.074-0.078-0.222v0-0.155c0-0.054-0.018-0.071-0.054-0.054v0c-0.487 0.271-0.949 0.407-1.384 0.407v0c-0.725 0-1.331-0.258-1.817-0.773-0.487-0.514-0.731-1.128-0.731-1.842v0c0-0.846 0.298-1.589 0.894-2.23 0.598-0.639 1.271-0.958 2.018-0.959zM310.192 157.18c-0.127-0.127-0.19-0.282-0.19-0.466 0-0.182 0.063-0.336 0.19-0.463 0.125-0.127 0.279-0.19 0.463-0.19 0.184 0 0.338 0.063 0.463 0.19 0.127 0.127 0.19 0.281 0.191 0.463 0 0.184-0.063 0.339-0.191 0.466-0.125 0.127-0.279 0.19-0.463 0.19-0.184 0-0.338-0.063-0.463-0.19zM311.258 160.009v2.693c0 0.505 0.035 0.892 0.104 1.162v0c0.016 0.062 0.129 0.121 0.34 0.177 0.209 0.057 0.357 0.086 0.445 0.086v0c0.025 0 0.042 0.053 0.05 0.158 0.009 0.104 0.004 0.178-0.013 0.222v0c-0.871-0.045-1.337-0.067-1.397-0.067-0.061 0-0.535 0.022-1.425 0.067v0c-0.036-0.036-0.054-0.108-0.053-0.217 0-0.109 0.018-0.163 0.053-0.163v0c0.104 0 0.258-0.029 0.463-0.086 0.205-0.055 0.316-0.114 0.332-0.177v0c0.062-0.252 0.094-0.556 0.094-0.913v0-2.471c0-0.341-0.062-0.576-0.185-0.706v0c-0.087-0.105-0.194-0.177-0.318-0.214-0.127-0.039-0.232-0.059-0.316-0.059-0.082 0-0.123-0.009-0.123-0.027v0c0-0.209 0.026-0.318 0.077-0.327v0c0.924-0.139 1.526-0.253 1.805-0.34v0l0.027-0.013c0.018 0 0.031 0 0.04 0v0c0.034 0 0.055 0.037 0.064 0.11 0.009 0.075 0.009 0.129 0 0.163v0c-0.043 0.35-0.064 0.664-0.064 0.942zM317.361 165.578v0c0-0.366-0.178-0.612-0.535-0.739-0.359-0.127-1.069-0.19-2.131-0.19v0c-0.018 0-0.045 0.009-0.08 0.026v0c-0.007 0.009-0.046 0.029-0.115 0.059-0.071 0.03-0.115 0.05-0.132 0.059-0.018 0.009-0.057 0.033-0.117 0.073-0.061 0.039-0.103 0.065-0.126 0.077-0.021 0.014-0.058 0.041-0.11 0.08-0.052 0.037-0.087 0.072-0.104 0.105-0.018 0.03-0.044 0.067-0.078 0.11-0.036 0.045-0.06 0.088-0.072 0.131-0.014 0.043-0.028 0.093-0.04 0.15-0.012 0.057-0.019 0.116-0.019 0.176v0c0 0.375 0.194 0.677 0.581 0.908 0.387 0.232 0.817 0.348 1.288 0.348v0c0.523 0 0.952-0.14 1.287-0.42 0.336-0.278 0.503-0.596 0.503-0.953zM314.015 160.598v0c0 0.4 0.124 0.74 0.372 1.02 0.248 0.278 0.538 0.418 0.87 0.418v0c0.339 0 0.62-0.131 0.844-0.394 0.221-0.261 0.332-0.574 0.332-0.939v0c0-0.402-0.124-0.742-0.373-1.02-0.248-0.278-0.538-0.418-0.87-0.418v0c-0.339 0-0.62 0.13-0.843 0.391-0.221 0.262-0.332 0.576-0.332 0.942zM315.244 158.821v0c0.323 0 0.693 0.056 1.111 0.168 0.418 0.114 0.762 0.171 1.033 0.172v0h0.758c0.052 0.016 0.078 0.125 0.078 0.326v0c0 0.121-0.026 0.182-0.078 0.182v0h-0.929c-0.034 0-0.051 0.013-0.051 0.04v0l0.129 0.314c0.096 0.209 0.145 0.418 0.144 0.626v0c0 0.471-0.209 0.894-0.626 1.269-0.419 0.375-0.933 0.562-1.542 0.562v0c-0.28 0-0.525-0.018-0.734-0.053v0c-0.112 0.061-0.232 0.17-0.359 0.326-0.127 0.157-0.19 0.297-0.19 0.421 0 0.121 0.035 0.219 0.105 0.291 0.07 0.075 0.17 0.128 0.3 0.158 0.132 0.03 0.259 0.052 0.38 0.065 0.121 0.014 0.265 0.021 0.431 0.021v0c0.045 0 0.075 0 0.091 0v0c1.082 0.018 1.84 0.129 2.275 0.332 0.435 0.205 0.653 0.513 0.654 0.924v0c0 0.671-0.283 1.248-0.849 1.732-0.568 0.484-1.296 0.729-2.185 0.736v0c-0.618 0.009-1.173-0.108-1.665-0.351-0.493-0.245-0.739-0.611-0.739-1.1v0c0-0.539 0.427-1 1.28-1.384v0c-0.234-0.036-0.452-0.145-0.653-0.327-0.2-0.184-0.3-0.406-0.3-0.666v0c0-0.227 0.098-0.462 0.294-0.707 0.196-0.245 0.416-0.445 0.659-0.602v0c-0.261-0.095-0.502-0.301-0.726-0.619-0.221-0.319-0.332-0.662-0.331-1.028v0c0-0.514 0.216-0.948 0.647-1.301 0.43-0.352 0.959-0.527 1.588-0.527zM319.905 157.18c-0.127-0.127-0.19-0.282-0.19-0.466 0-0.182 0.063-0.336 0.19-0.463 0.125-0.127 0.279-0.19 0.463-0.19 0.182 0 0.336 0.063 0.463 0.19 0.127 0.127 0.19 0.281 0.19 0.463 0 0.184-0.063 0.339-0.19 0.466-0.127 0.127-0.281 0.19-0.463 0.19-0.184 0-0.338-0.063-0.463-0.19zM320.97 160.009v2.693c0 0.505 0.035 0.892 0.105 1.162v0c0.016 0.062 0.129 0.121 0.34 0.177 0.209 0.057 0.357 0.086 0.444 0.086v0c0.025 0 0.042 0.053 0.051 0.158 0.009 0.104 0.004 0.178-0.014 0.222v0c-0.871-0.045-1.337-0.067-1.397-0.067-0.061 0-0.535 0.022-1.424 0.067v0c-0.036-0.036-0.054-0.108-0.054-0.217 0-0.109 0.018-0.163 0.054-0.163v0c0.104 0 0.258-0.029 0.463-0.086 0.205-0.055 0.316-0.114 0.332-0.177v0c0.062-0.252 0.094-0.556 0.094-0.913v0-2.471c0-0.341-0.062-0.576-0.185-0.706v0c-0.087-0.105-0.194-0.177-0.319-0.214-0.127-0.039-0.232-0.059-0.316-0.059-0.082 0-0.123-0.009-0.123-0.027v0c0-0.209 0.026-0.318 0.078-0.327v0c0.924-0.139 1.526-0.253 1.804-0.34v0l0.027-0.013c0.018 0 0.031 0 0.04 0v0c0.034 0 0.055 0.037 0.064 0.11 0.009 0.075 0.009 0.129 0 0.163v0c-0.043 0.35-0.064 0.664-0.064 0.942zM323.165 162.898v-3.32h-0.757c-0.045 0-0.067-0.092-0.067-0.275v0c0-0.052 0.004-0.082 0.013-0.091v0c0.253-0.112 0.528-0.344 0.825-0.694v0c0.095-0.112 0.188-0.241 0.281-0.385 0.091-0.143 0.167-0.267 0.227-0.372 0.061-0.104 0.091-0.16 0.091-0.169v0c0.262 0 0.394 0.021 0.394 0.064v0 1.293c0.227 0 0.571 0.003 1.033 0.008 0.46 0.004 0.704 0.005 0.731 0.006v0c0.07 0 0.104 0.039 0.105 0.117v0c0 0.157-0.044 0.323-0.132 0.498v0h-1.737v3.202c0 0.348 0.089 0.627 0.268 0.838 0.178 0.209 0.411 0.313 0.698 0.313v0c0.262 0 0.533-0.083 0.812-0.249v0c0.027-0.018 0.066 0.02 0.117 0.113 0.052 0.091 0.073 0.141 0.065 0.15v0c-0.13 0.139-0.33 0.276-0.6 0.409-0.271 0.136-0.551 0.203-0.838 0.204v0c-0.435 0-0.8-0.144-1.092-0.431-0.291-0.287-0.436-0.697-0.437-1.229zM328.054 163.623c0.148 0.127 0.34 0.19 0.575 0.19 0.236 0 0.462-0.072 0.68-0.216 0.218-0.143 0.327-0.288 0.327-0.437v0-1.346c-0.07 0.034-0.24 0.095-0.511 0.182-0.269 0.087-0.48 0.164-0.632 0.23-0.153 0.064-0.302 0.173-0.445 0.326-0.145 0.152-0.217 0.328-0.216 0.528v0c0 0.236 0.074 0.417 0.222 0.543zM329.283 158.767v0c0.48 0 0.825 0.115 1.033 0.345 0.209 0.232 0.313 0.605 0.313 1.119v0 3.02c0 0.182 0.048 0.335 0.145 0.458 0.095 0.121 0.225 0.182 0.391 0.182v0c0.121 0 0.274-0.061 0.457-0.182v0c0.036 0 0.054 0.035 0.054 0.104v0c0 0.112-0.022 0.203-0.067 0.273v0c-0.357 0.305-0.662 0.458-0.916 0.458v0c-0.2 0-0.391-0.082-0.572-0.246-0.184-0.166-0.311-0.341-0.381-0.525v0c-0.009 0-0.042 0.029-0.099 0.086-0.055 0.057-0.131 0.122-0.227 0.195-0.096 0.075-0.208 0.152-0.335 0.231-0.125 0.079-0.273 0.144-0.444 0.195-0.17 0.052-0.342 0.078-0.517 0.078v0c-0.4 0-0.731-0.106-0.993-0.319-0.261-0.214-0.391-0.535-0.391-0.961v0c0-0.193 0.048-0.374 0.145-0.543 0.095-0.17 0.208-0.309 0.34-0.418 0.13-0.109 0.309-0.22 0.535-0.335 0.227-0.112 0.42-0.197 0.581-0.254 0.161-0.057 0.372-0.129 0.634-0.217 0.261-0.086 0.444-0.151 0.549-0.195v0c0.079-0.025 0.118-0.09 0.118-0.196v0-0.98c0-0.278-0.087-0.494-0.262-0.647-0.173-0.152-0.382-0.228-0.627-0.228v0c-0.262 0-0.48 0.089-0.653 0.268-0.175 0.178-0.262 0.411-0.262 0.698v0c0 0.305-0.178 0.458-0.536 0.458v0c-0.245 0-0.415-0.083-0.511-0.249v0c0-0.375 0.275-0.747 0.824-1.116 0.55-0.371 1.107-0.557 1.674-0.557zM332.891 162.951v0-5.662c0-0.296-0.027-0.575-0.08-0.835v0c-0.043-0.139-0.265-0.209-0.667-0.209v0h-0.117c-0.052 0-0.078-0.048-0.078-0.144v0c0-0.139 0.026-0.209 0.078-0.209v0c0.262-0.027 0.504-0.062 0.725-0.105 0.223-0.045 0.398-0.088 0.525-0.131 0.127-0.043 0.233-0.084 0.318-0.123 0.087-0.039 0.153-0.072 0.199-0.099v0l0.05-0.04h0.027c0.034 0 0.069 0.024 0.105 0.072 0.034 0.048 0.055 0.094 0.064 0.137v0c-0.095 0.28-0.142 0.659-0.142 1.138v0 5.961c0 0.505 0.035 0.892 0.104 1.162v0c0.016 0.062 0.129 0.121 0.34 0.177 0.209 0.057 0.357 0.086 0.445 0.086v0c0.025 0 0.042 0.053 0.051 0.158 0.009 0.104 0.004 0.178-0.014 0.222v0c-0.871-0.045-1.337-0.067-1.397-0.067v0c-0.052 0-0.526 0.022-1.424 0.067v0c-0.036-0.036-0.054-0.108-0.054-0.217 0-0.109 0.018-0.163 0.054-0.163v0c0.104 0 0.258-0.029 0.463-0.086 0.205-0.055 0.316-0.114 0.332-0.177v0c0.062-0.252 0.094-0.556 0.093-0.913zM336.171 162.951v0-5.662c0-0.296-0.026-0.575-0.078-0.835v0c-0.043-0.139-0.265-0.209-0.666-0.209v0h-0.118c-0.052 0-0.078-0.048-0.078-0.144v0c0-0.139 0.026-0.209 0.078-0.209v0c0.261-0.027 0.502-0.062 0.725-0.105 0.221-0.045 0.395-0.088 0.522-0.131 0.127-0.043 0.234-0.084 0.322-0.123 0.087-0.039 0.153-0.072 0.195-0.099v0l0.054-0.04h0.024c0.036 0 0.071 0.024 0.107 0.072 0.034 0.048 0.055 0.094 0.064 0.137v0c-0.096 0.28-0.145 0.659-0.145 1.138v0 5.961c0 0.505 0.035 0.892 0.105 1.162v0c0.018 0.062 0.131 0.121 0.34 0.177 0.209 0.057 0.357 0.086 0.444 0.086v0c0.027 0 0.045 0.053 0.054 0.158 0.009 0.104 0.004 0.178-0.014 0.222v0c-0.871-0.045-1.338-0.067-1.4-0.067v0c-0.052 0-0.526 0.022-1.424 0.067v0c-0.034-0.036-0.051-0.108-0.051-0.217 0-0.109 0.017-0.163 0.051-0.163v0c0.105 0 0.261-0.029 0.466-0.086 0.203-0.055 0.314-0.114 0.332-0.177v0c0.061-0.252 0.091-0.556 0.091-0.913zM339.806 158.858v0c0.148 0 0.285-0.004 0.41-0.013 0.127-0.007 0.271-0.015 0.434-0.024 0.161-0.009 0.302-0.018 0.423-0.027v0c0.018 0.052 0.027 0.117 0.026 0.195v0c0 0.121-0.017 0.182-0.051 0.182v0c-0.071 0-0.187 0.031-0.348 0.094-0.161 0.061-0.25 0.121-0.267 0.182v0 0.027c0 0.157 0.467 1.294 1.4 3.41v0l0.993-2.861c0.061-0.184 0.091-0.319 0.091-0.407v0c0-0.13-0.068-0.236-0.203-0.319-0.136-0.084-0.317-0.126-0.544-0.126v0c-0.034 0-0.051-0.056-0.051-0.168v0c0-0.105 0.017-0.175 0.051-0.209v0c0.114 0.009 0.285 0.022 0.512 0.04 0.227 0.016 0.444 0.024 0.653 0.024v0c0.191 0 0.4-0.008 0.626-0.024 0.227-0.018 0.397-0.031 0.511-0.04v0c0.018 0.052 0.027 0.117 0.027 0.195v0c0 0.121-0.018 0.182-0.053 0.182v0c-0.112 0-0.267 0.039-0.463 0.118-0.196 0.079-0.325 0.205-0.386 0.38v0l-2.34 6.313c-0.202 0.541-0.428 0.918-0.68 1.132-0.253 0.212-0.485 0.319-0.693 0.319v0c-0.184 0-0.319-0.056-0.404-0.169-0.087-0.114-0.131-0.228-0.131-0.34v0c0-0.191 0.061-0.33 0.182-0.417v0c0.723 0 1.202-0.375 1.437-1.125v0c0.045-0.13 0.097-0.287 0.158-0.471 0.061-0.184 0.109-0.332 0.145-0.444v0l-1.872-4.576c-0.095-0.209-0.181-0.357-0.259-0.444v0c-0.079-0.079-0.199-0.144-0.362-0.195-0.161-0.054-0.289-0.08-0.385-0.081v0c-0.034 0-0.051-0.056-0.051-0.168v0c0-0.105 0.017-0.175 0.051-0.209v0c0.898 0.043 1.369 0.064 1.413 0.064z" fill="#ffffff" fill-rule="nonzero" stroke="none" stroke-width="1" stroke-linecap="butt" stroke-linejoin="miter" stroke-miterlimit="10" stroke-dasharray="" stroke-dashoffset="0" font-family="none" font-weight="none" font-size="none" text-anchor="none" style="mix-blend-mode: normal" data-fill-palette-color="secondary"></path></g></g><g transform="matrix(1,0,0,1,29.33176499999999,26.969313484764065)"><svg viewBox="0 0 316.416 29.222227286356826" height="29.222227286356826" width="316.416"><g><svg viewBox="0 0 316.416 29.222227286356826" height="29.222227286356826" width="316.416"><g><svg viewBox="0 0 316.416 29.222227286356826" height="29.222227286356826" width="316.416"><g><svg viewBox="0 0 316.416 29.222227286356826" height="29.222227286356826" width="316.416"><g id="textblocktransform"><svg viewBox="0 0 316.416 29.222227286356826" height="29.222227286356826" width="316.416" id="textblock"><g><svg viewBox="0 0 316.416 29.222227286356826" height="29.222227286356826" width="316.416"><g transform="matrix(1,0,0,1,0,0)"><svg width="316.416" viewBox="3.2 -34.3 500.21000000000004 46.199999999999996" height="29.222227286356826" data-palette-color="#010c80"><path d="M3.2 0L3.2-3.5 25.55-28.65Q26.45-29.65 28.35-30.3L28.35-30.3 28.3-30.5Q26.9-30.2 25.3-30.2L25.3-30.2 7.85-30.2 7.85-23.05 3.25-23.05 3.25-34.3 33.95-34.3 33.95-30.85 11.45-5.55Q11-5 10.18-4.6 9.35-4.2 8.7-4.05L8.7-4.05 8.75-3.8Q9.35-3.95 10.2-4.05 11.05-4.15 11.8-4.15L11.8-4.15 29.6-4.15 29.6-11.25 34.2-11.25 34.2 0 3.2 0ZM65.35-4.15L66.35-0.6Q64.7 0.4 62.5 0.4L62.5 0.4Q60.65 0.4 59.37-0.68 58.1-1.75 57.6-3.75L57.6-3.75Q52.6 0.7 47.7 0.7L47.7 0.7Q44.25 0.7 41.85-1.25 39.45-3.2 39.45-6.7L39.45-6.7Q39.45-9.1 40.8-10.88 42.15-12.65 44.42-13.58 46.7-14.5 49.35-14.5L49.35-14.5Q51.6-14.5 53.5-14.08 55.4-13.65 57.4-12.85L57.4-12.85 57.4-15.05Q57.4-17.6 55.7-18.8 54-20 51.25-20L51.25-20Q47.35-20 41.85-17.85L41.85-17.85 40.85-21.65Q46.75-24.15 51.85-24.15L51.85-24.15Q56.7-24.15 59.37-21.78 62.05-19.4 62.05-14.85L62.05-14.85 62.05-6.2Q62.05-3.75 63.8-3.75L63.8-3.75Q64.55-3.75 65.35-4.15L65.35-4.15ZM44.3-6.95Q44.3-5.25 45.65-4.33 47-3.4 48.95-3.4L48.95-3.4Q50.65-3.4 52.85-4.3 55.05-5.2 57.4-6.95L57.4-6.95 57.4-9.6Q54-10.8 50.2-10.9L50.2-10.9Q47.75-10.9 46.02-9.88 44.3-8.85 44.3-6.95L44.3-6.95ZM95.4-4.15L96.4-0.6Q94.75 0.4 92.55 0.4L92.55 0.4Q90.7 0.4 89.42-0.68 88.15-1.75 87.65-3.75L87.65-3.75Q82.65 0.7 77.75 0.7L77.75 0.7Q74.3 0.7 71.89-1.25 69.5-3.2 69.5-6.7L69.5-6.7Q69.5-9.1 70.84-10.88 72.2-12.65 74.47-13.58 76.75-14.5 79.4-14.5L79.4-14.5Q81.65-14.5 83.55-14.08 85.45-13.65 87.45-12.85L87.45-12.85 87.45-15.05Q87.45-17.6 85.75-18.8 84.05-20 81.3-20L81.3-20Q77.4-20 71.89-17.85L71.89-17.85 70.89-21.65Q76.8-24.15 81.9-24.15L81.9-24.15Q86.75-24.15 89.42-21.78 92.09-19.4 92.09-14.85L92.09-14.85 92.09-6.2Q92.09-3.75 93.84-3.75L93.84-3.75Q94.59-3.75 95.4-4.15L95.4-4.15ZM74.34-6.95Q74.34-5.25 75.7-4.33 77.05-3.4 79-3.4L79-3.4Q80.7-3.4 82.9-4.3 85.09-5.2 87.45-6.95L87.45-6.95 87.45-9.6Q84.05-10.8 80.25-10.9L80.25-10.9Q77.8-10.9 76.07-9.88 74.34-8.85 74.34-6.95L74.34-6.95ZM117.74-34.3Q121.74-34.3 124.77-33.02 127.79-31.75 129.44-29.35 131.09-26.95 131.09-23.65L131.09-23.65Q131.09-18.6 127.49-15.68 123.89-12.75 117.79-12.75L117.79-12.75 109.79-12.75 109.79-4.15 116.64-4.15 116.64 0 98.24 0 98.24-4.15 104.69-4.15 104.69-30.15 98.24-30.15 98.24-34.3 117.74-34.3ZM117.54-16.9Q121.24-16.9 123.62-18.48 125.99-20.05 125.99-23.7L125.99-23.7Q125.99-27.05 123.59-28.6 121.19-30.15 117.44-30.15L117.44-30.15 109.79-30.15 109.79-16.95 117.54-16.9ZM156.09-6.7L158.19-3.5Q153.39 0.7 147.24 0.7L147.24 0.7Q143.89 0.7 140.89-0.7 137.89-2.1 136.04-4.8 134.19-7.5 134.19-11.2L134.19-11.2Q134.19-15.15 136.09-18.1 137.99-21.05 141.04-22.63 144.09-24.2 147.44-24.2L147.44-24.2Q150.39-24.2 152.71-23.25 155.04-22.3 156.36-20.6 157.69-18.9 157.69-16.7L157.69-16.7Q157.69-13.4 154.86-11.58 152.04-9.75 148.09-9.75L148.09-9.75Q145.54-9.75 143.34-10.28 141.14-10.8 138.89-11.8L138.89-11.8 138.89-11.35Q138.89-9 140.01-7.2 141.14-5.4 143.04-4.45 144.94-3.5 147.19-3.5L147.19-3.5Q152.29-3.5 156.09-6.7L156.09-6.7ZM147.79-20.3Q145.09-20.3 142.76-18.75 140.44-17.2 139.44-14.55L139.44-14.55Q143.24-13.2 147.04-13.2L147.04-13.2Q149.54-13.2 151.16-14.13 152.79-15.05 152.79-16.7L152.79-16.7Q152.79-18.3 151.39-19.3 149.99-20.3 147.79-20.3L147.79-20.3ZM184.04-6.7L186.14-3.5Q181.34 0.7 175.19 0.7L175.19 0.7Q171.84 0.7 168.84-0.7 165.84-2.1 163.99-4.8 162.14-7.5 162.14-11.2L162.14-11.2Q162.14-15.15 164.04-18.1 165.94-21.05 168.99-22.63 172.04-24.2 175.39-24.2L175.39-24.2Q178.34-24.2 180.66-23.25 182.99-22.3 184.31-20.6 185.64-18.9 185.64-16.7L185.64-16.7Q185.64-13.4 182.81-11.58 179.99-9.75 176.04-9.75L176.04-9.75Q173.49-9.75 171.29-10.28 169.09-10.8 166.84-11.8L166.84-11.8 166.84-11.35Q166.84-9 167.96-7.2 169.09-5.4 170.99-4.45 172.89-3.5 175.14-3.5L175.14-3.5Q180.24-3.5 184.04-6.7L184.04-6.7ZM175.74-20.3Q173.04-20.3 170.71-18.75 168.39-17.2 167.39-14.55L167.39-14.55Q171.19-13.2 174.99-13.2L174.99-13.2Q177.49-13.2 179.11-14.13 180.74-15.05 180.74-16.7L180.74-16.7Q180.74-18.3 179.34-19.3 177.94-20.3 175.74-20.3L175.74-20.3ZM204.68-34.3L239.78-34.3 239.78-23.05 235.18-23.05 235.18-30.15 224.83-30.15 224.83-4.15 231.33-4.15 231.33 0 213.13 0 213.13-4.15 219.68-4.15 219.68-30.15 209.28-30.15 209.28-23.05 204.68-23.05 204.68-34.3ZM263.03-6.7L265.13-3.5Q260.33 0.7 254.18 0.7L254.18 0.7Q250.83 0.7 247.83-0.7 244.83-2.1 242.98-4.8 241.13-7.5 241.13-11.2L241.13-11.2Q241.13-15.15 243.03-18.1 244.93-21.05 247.98-22.63 251.03-24.2 254.38-24.2L254.38-24.2Q257.33-24.2 259.65-23.25 261.98-22.3 263.3-20.6 264.63-18.9 264.63-16.7L264.63-16.7Q264.63-13.4 261.8-11.58 258.98-9.75 255.03-9.75L255.03-9.75Q252.48-9.75 250.28-10.28 248.08-10.8 245.83-11.8L245.83-11.8 245.83-11.35Q245.83-9 246.95-7.2 248.08-5.4 249.98-4.45 251.88-3.5 254.13-3.5L254.13-3.5Q259.23-3.5 263.03-6.7L263.03-6.7ZM254.73-20.3Q252.03-20.3 249.7-18.75 247.38-17.2 246.38-14.55L246.38-14.55Q250.18-13.2 253.98-13.2L253.98-13.2Q256.48-13.2 258.1-14.13 259.73-15.05 259.73-16.7L259.73-16.7Q259.73-18.3 258.33-19.3 256.93-20.3 254.73-20.3L254.73-20.3ZM290.33-7L292.53-3.8Q287.88 0.7 281.68 0.7L281.68 0.7Q278.38 0.7 275.48-0.85 272.58-2.4 270.83-5.23 269.08-8.05 269.08-11.7L269.08-11.7Q269.08-15.15 270.68-18.03 272.28-20.9 274.98-22.55 277.68-24.2 280.83-24.2L280.83-24.2Q285.83-24.2 288.63-20.65L288.63-20.65 288.63-23.55 292.18-23.55 292.18-15.3 290.08-15.15Q287.63-20.15 282.28-20.15L282.28-20.15Q279.98-20.15 278.13-19.07 276.28-18 275.23-16.1 274.18-14.2 274.18-11.75L274.18-11.75Q274.18-9.35 275.3-7.45 276.43-5.55 278.25-4.53 280.08-3.5 282.18-3.5L282.18-3.5Q284.63-3.45 286.5-4.35 288.38-5.25 290.33-7L290.33-7ZM324.28-3.95L328.98-3.95 328.98 0 315.08 0 315.08-3.95 319.43-3.95 319.43-13.7Q319.43-16.6 318.05-18.2 316.68-19.8 314.08-19.8L314.08-19.8Q310.03-19.8 305.08-14.3L305.08-14.3 305.08-3.95 309.38-3.95 309.38 0 294.88 0 294.88-3.95 300.18-3.95 300.18-30.35 294.88-30.35 294.88-34.3 305.08-34.3 305.08-18.15Q307.83-21.15 310.4-22.65 312.98-24.15 316.03-24.15L316.03-24.15Q320.08-24.15 322.18-21.58 324.28-19 324.28-13.85L324.28-13.85 324.28-3.95ZM360.62-3.95L365.32-3.95 365.32 0 351.42 0 351.42-3.95 355.77-3.95 355.77-13.7Q355.77-16.45 354.4-18.03 353.02-19.6 350.47-19.6L350.47-19.6Q346.12-19.6 341.27-14.1L341.27-14.1 341.27-3.95 345.62-3.95 345.62 0 331.07 0 331.07-3.95 336.37-3.95 336.37-19.6 331.07-19.6 331.07-23.55 341.27-23.55 341.27-18Q344.07-21.1 346.65-22.63 349.22-24.15 352.17-24.15L352.17-24.15Q356.22-24.15 358.42-21.55 360.62-18.95 360.62-13.85L360.62-13.85 360.62-3.95ZM380.82 0.7Q377.37 0.7 374.37-0.85 371.37-2.4 369.59-5.25 367.82-8.1 367.82-11.75L367.82-11.75Q367.82-15.45 369.59-18.28 371.37-21.1 374.37-22.65 377.37-24.2 380.82-24.2L380.82-24.2Q384.22-24.2 387.19-22.65 390.17-21.1 391.97-18.25 393.77-15.4 393.77-11.75L393.77-11.75Q393.77-8.1 392.02-5.25 390.27-2.4 387.29-0.85 384.32 0.7 380.82 0.7L380.82 0.7ZM380.82-3.25Q383.07-3.25 384.87-4.3 386.67-5.35 387.69-7.28 388.72-9.2 388.72-11.75L388.72-11.75Q388.72-14.3 387.69-16.23 386.67-18.15 384.87-19.2 383.07-20.25 380.82-20.25L380.82-20.25Q377.37-20.25 375.14-17.93 372.92-15.6 372.92-11.75L372.92-11.75Q372.92-7.9 375.14-5.58 377.37-3.25 380.82-3.25L380.82-3.25ZM406.77-3.95L412.22-3.95 412.22 0 396.62 0 396.62-3.95 401.87-3.95 401.87-30.35 396.62-30.35 396.62-34.3 406.77-34.3 406.77-3.95ZM427.81 0.7Q424.37 0.7 421.37-0.85 418.37-2.4 416.59-5.25 414.81-8.1 414.81-11.75L414.81-11.75Q414.81-15.45 416.59-18.28 418.37-21.1 421.37-22.65 424.37-24.2 427.81-24.2L427.81-24.2Q431.21-24.2 434.19-22.65 437.16-21.1 438.96-18.25 440.76-15.4 440.76-11.75L440.76-11.75Q440.76-8.1 439.01-5.25 437.26-2.4 434.29-0.85 431.31 0.7 427.81 0.7L427.81 0.7ZM427.81-3.25Q430.06-3.25 431.87-4.3 433.66-5.35 434.69-7.28 435.71-9.2 435.71-11.75L435.71-11.75Q435.71-14.3 434.69-16.23 433.66-18.15 431.87-19.2 430.06-20.25 427.81-20.25L427.81-20.25Q424.37-20.25 422.14-17.93 419.91-15.6 419.91-11.75L419.91-11.75Q419.91-7.9 422.14-5.58 424.37-3.25 427.81-3.25L427.81-3.25ZM463.41-4.45Q466.61-4.45 468.59-2.85 470.56-1.25 470.56 1.65L470.56 1.65Q470.56 4.45 468.46 6.55 466.36 8.65 462.81 9.78 459.26 10.9 455.11 10.9L455.11 10.9Q450.06 10.9 446.84 9.03 443.61 7.15 443.61 3.9L443.61 3.9Q443.61 2.45 444.39 1.18 445.16-0.1 446.36-1.05L446.36-1.05Q445.36-1.8 444.84-2.83 444.31-3.85 444.31-5L444.31-5Q444.31-6.85 445.36-8.33 446.41-9.8 448.11-10.8L448.11-10.8Q446.41-12.9 446.41-15.6L446.41-15.6Q446.41-18.3 447.99-20.25 449.56-22.2 452.01-23.2 454.46-24.2 457.01-24.2L457.01-24.2Q459.96-24.2 462.46-23.1L462.46-23.1Q463.36-25.7 465.39-27.05 467.41-28.4 470.21-28.5L470.21-28.5 470.21-24.4Q468.26-24.3 466.94-23.75 465.61-23.2 464.61-21.85L464.61-21.85Q467.71-19.5 467.71-15.75L467.71-15.75Q467.71-13.05 466.16-11.1 464.61-9.15 462.14-8.15 459.66-7.15 457.01-7.15L457.01-7.15Q453.16-7.15 450.11-9.05L450.11-9.05Q448.61-7.7 448.61-6.15L448.61-6.15Q448.61-4.85 449.64-4.13 450.66-3.4 452.46-3.4L452.46-3.4Q454.16-3.4 457.56-3.9L457.56-3.9Q458.91-4.1 460.46-4.28 462.01-4.45 463.41-4.45L463.41-4.45ZM457.06-20.7Q454.61-20.7 452.91-19.28 451.21-17.85 451.21-15.6L451.21-15.6Q451.21-13.35 452.89-12 454.56-10.65 457.06-10.65L457.06-10.65Q459.66-10.65 461.29-12.05 462.91-13.45 462.91-15.75L462.91-15.75Q462.91-18 461.24-19.35 459.56-20.7 457.06-20.7L457.06-20.7ZM455.81 6.85Q458.46 6.85 460.84 6.25 463.21 5.65 464.64 4.53 466.06 3.4 466.06 1.95L466.06 1.95Q466.06-0.6 462.36-0.6L462.36-0.6Q461.36-0.6 460.16-0.45 458.96-0.3 457.81-0.1L457.81-0.1Q456.41 0.15 454.79 0.35 453.16 0.55 451.61 0.55L451.61 0.55Q450.26 0.55 448.86 0.2L448.86 0.2Q447.86 1.35 447.86 2.9L447.86 2.9Q447.86 4.75 449.96 5.8 452.06 6.85 455.81 6.85L455.81 6.85ZM503.41-23.55L503.41-19.6 499.71-19.6 489.81 2.6Q487.71 7.25 485.08 9.58 482.46 11.9 478.96 11.9L478.96 11.9Q477.01 11.9 475.44 11.28 473.86 10.65 472.01 9.45L472.01 9.45 474.01 5.7Q476.56 7.55 478.96 7.55L478.96 7.55Q481.11 7.55 482.81 6.18 484.51 4.8 485.81 1.8L485.81 1.8 486.16 1 476.06-19.6 472.16-19.6 472.16-23.55 485.36-23.55 485.36-19.95 481.31-19.95 488.41-4.15 495.36-19.95 491.51-19.95 491.51-23.55 503.41-23.55Z" opacity="1" transform="matrix(1,0,0,1,0,0)" fill="#ffffff" class="wordmark-text-0" data-fill-palette-color="primary" id="text-0"></path></svg></g></svg></g></svg></g></svg></g></svg></g></svg></g></svg></g></svg></g><defs></defs></svg><rect width="375.07953" height="83.16085425588496" fill="none" stroke="none" visibility="hidden"></rect></g></svg></g></svg>